<svg id="Group_179" data-name="Group 179" xmlns="http://www.w3.org/2000/svg" width="117.264" height="69.247" viewBox="0 0 117.264 69.247">
  <path id="Path_189" data-name="Path 189" d="M115.542,50.043l-5.431-12.59a12.432,12.432,0,0,0-11.48-7.53H89.868V26.714A4.82,4.82,0,0,0,85.054,21.9H23.83a3.187,3.187,0,0,0-3.209,3.209,3.268,3.268,0,0,0,3.209,3.209H83.2v23.7a5.268,5.268,0,0,0,5.308,5.308h21.354V72.262a1.106,1.106,0,0,1-1.111,1.111H104.8a11.876,11.876,0,0,0-10.245-5.925,12.144,12.144,0,0,0-10.245,5.925H51.356a11.876,11.876,0,0,0-10.245-5.925,12.144,12.144,0,0,0-10.245,5.925H19.509a3.209,3.209,0,0,0,0,6.419h9.751a11.861,11.861,0,0,0,23.7,0H82.708a11.861,11.861,0,0,0,23.7,0H109a7.56,7.56,0,0,0,7.53-7.53V54.981A14.074,14.074,0,0,0,115.542,50.043ZM41.111,84.729A5.431,5.431,0,1,1,46.542,79.3,5.479,5.479,0,0,1,41.111,84.729Zm53.448,0A5.431,5.431,0,1,1,99.989,79.3,5.479,5.479,0,0,1,94.558,84.729ZM89.744,36.465h8.764a5.782,5.782,0,0,1,5.431,3.58l4.691,10.862H89.744Z" transform="translate(0.734 -21.9)" fill="#212121"/>
  <path id="Path_190" data-name="Path 190" d="M15.509,39.219H38.221a3.209,3.209,0,1,0,0-6.419H15.509A3.187,3.187,0,0,0,12.3,36.009,3.268,3.268,0,0,0,15.509,39.219Z" transform="translate(-0.203 -19.346)" fill="#212121"/>
  <path id="Path_191" data-name="Path 191" d="M10.609,49.219H33.321a3.209,3.209,0,1,0,0-6.419H10.609A3.187,3.187,0,0,0,7.4,46.009,3.268,3.268,0,0,0,10.609,49.219Z" transform="translate(-1.352 -17.002)" fill="#212121"/>
  <path id="Path_192" data-name="Path 192" d="M31.754,56.009A3.187,3.187,0,0,0,28.545,52.8H5.709a3.209,3.209,0,1,0,0,6.419H28.421A3.144,3.144,0,0,0,31.754,56.009Z" transform="translate(-2.5 -14.658)" fill="#212121"/>
</svg>
