<svg id="noun_payment_2281176" xmlns="http://www.w3.org/2000/svg" width="81.094" height="81.094" viewBox="0 0 81.094 81.094">
  <path id="Path_87" data-name="Path 87" d="M7.907,90.479a1.7,1.7,0,1,1,1.2-.493A1.7,1.7,0,0,1,7.907,90.479Z" transform="translate(-1.176 -16.465)" fill="#212121"/>
  <path id="Path_88" data-name="Path 88" d="M15.679,93.258H0V89.2H11.62V68.4H0V64.339H15.679Z" transform="translate(0 -12.164)" fill="#212121"/>
  <path id="Path_89" data-name="Path 89" d="M44.038,88.334H22.659V67.744l.24-.449a13.342,13.342,0,0,1,5.683-5.355,17.6,17.6,0,0,1,14.41-.378,42.185,42.185,0,0,1,4.315,2.056c1.15.6,2.236,1.173,3.359,1.648a10.983,10.983,0,0,0,1.449.42c1.7.419,4.022.992,4.979,3.177a9.55,9.55,0,0,1,.611,4.407L67.91,73.12l5.3-5.869a5.545,5.545,0,0,1,8.245,7.417l-7.987,8.912Zm-17.32-4.059H43.712L71.4,79.8l7.029-7.844a1.486,1.486,0,0,0-2.209-1.987l-6.486,7.181-25.131.371-.059-4.058,9.089-.134a6.5,6.5,0,0,0-.26-2.838c-.155-.353-1.507-.687-2.233-.866A13.747,13.747,0,0,1,49.086,69c-1.279-.541-2.492-1.177-3.664-1.792a38.571,38.571,0,0,0-3.9-1.866,13.557,13.557,0,0,0-11.077.2A9.735,9.735,0,0,0,26.718,68.8Z" transform="translate(-4.284 -11.382)" fill="#212121"/>
  <path id="Path_90" data-name="Path 90" d="M86.142,9.058V4.744L73.216,0,48.247,12.837H26.7V43.045H76.168V34.489c.673.024,1.338.049,1.987.1.405.024.811.041,1.216.041a20.454,20.454,0,0,0,6.771-1.208V29.08c-.016.008-.041.016-.057.024a16.675,16.675,0,0,1-7.663,1.435c-.738-.049-1.484-.081-2.254-.105-1.3-.032-2.636-.024-4.055.024-1.954.065-4.047.219-6.333.454l-2.5.259a2.371,2.371,0,0,1-.649-4.7l9.456-1.638a.03.03,0,0,0,.024-.008,5.963,5.963,0,0,0,4.055-2.725,6.05,6.05,0,0,0-5.109-9.269H57.11L73.491,4.42ZM71.059,16.892a1.931,1.931,0,0,1,1.054.3,2,2,0,0,1,0,3.382,1.943,1.943,0,0,1-.714.268l-9.456,1.638a6.425,6.425,0,0,0,1.095,12.756,5.885,5.885,0,0,0,.649-.032s6.6-.616,8.426-.681V38.99H30.755v-22.1Z" transform="translate(-5.048)" fill="#212121"/>
  <rect id="Rectangle_484" data-name="Rectangle 484" width="4.055" height="4.055" transform="translate(44.622 25.914)" fill="#212121"/>
</svg>
