<svg id="noun_guarantee_2519048" xmlns="http://www.w3.org/2000/svg" width="72.918" height="76.973" viewBox="0 0 72.918 76.973">
  <path id="Path_91" data-name="Path 91" d="M75.973,13.926,42.215,4.109a2.7,2.7,0,0,0-1.539,0h0L6.917,13.926A2.7,2.7,0,0,0,5,16.519V46C5,71.653,39.339,80.524,40.811,80.889a2.645,2.645,0,0,0,1.35-.013C44.268,80.349,77.918,71.41,77.918,46V16.519a2.7,2.7,0,0,0-1.944-2.593ZM72.517,46c0,19.715-26.521,28.222-31.058,29.478C36.922,74.218,10.4,65.752,10.4,46V18.558L41.459,9.51l31.058,9.034Z" transform="translate(-5 -3.997)" fill="#212121"/>
  <path id="Path_92" data-name="Path 92" d="M31.74,20.7v2.822a8.1,8.1,0,0,0,1.35,16.082h4.051a2.7,2.7,0,1,1,0,5.4h-8.1a2.7,2.7,0,0,0,0,5.4h2.7v2.7a2.7,2.7,0,0,0,5.4,0v-2.7a8.1,8.1,0,1,0,0-16.2H33.09a2.7,2.7,0,0,1,0-5.4h8.1a2.7,2.7,0,0,0,0-5.4H37.141V20.7a2.7,2.7,0,1,0-5.4,0Z" transform="translate(2.019 0.909)" fill="#212121"/>
</svg>
