<svg id="noun_materials_308312" xmlns="http://www.w3.org/2000/svg" width="68.446" height="69.247" viewBox="0 0 68.446 69.247">
  <circle id="Ellipse_47" data-name="Ellipse 47" cx="2.062" cy="2.062" r="2.062" transform="translate(17.724 42.701)" fill="#f93b41"/>
  <path id="Path_111" data-name="Path 111" d="M75.061,5.977H28.842V29.006H6.615V75.224H52.834V52.2H75.061V5.977Zm-3.6,9.847L52.834,34.453V29.006H45.983l19.27-19.27-.16-.16h6.37v6.249ZM49.236,52.08c-3.087-.52-7.882-1.1-9.607,4.7-.922,3.1-3.418,6.668-5.423,9.532a30.672,30.672,0,0,0-3.283,5.31h-5.7a12.367,12.367,0,0,1,2.582-7.618,12.186,12.186,0,0,1,2.713-2.285c2.337-1.617,5.247-3.628,6.138-9.33a17.834,17.834,0,0,0-1.208-10.2A18.134,18.134,0,0,1,34.163,32.6h5.269c.149.734.275,1.5.409,2.3.755,4.546,1.694,10.2,7.736,13.312.338.174.558.295.7.375a2.573,2.573,0,0,0,.962.629V52.08ZM20,55.28a16.486,16.486,0,0,1,.356-5.482,15.259,15.259,0,0,1,2.462-4.964,20.643,20.643,0,0,0,4-12.23h3.738a21.578,21.578,0,0,0,1.525,10.83,14.429,14.429,0,0,1,1.03,8.4c-.653,4.177-2.5,5.451-4.629,6.926a15.161,15.161,0,0,0-3.477,3,15.934,15.934,0,0,0-3.37,9.865H17.868C20.369,62.821,20.164,58.661,20,55.28Zm29.24-10.257-.013-.007c-4.435-2.282-5.114-6.372-5.833-10.7-.094-.564-.193-1.139-.3-1.71h6.144Zm-16.8-19.2L48.686,9.575H60.326L40.895,29.006H32.44ZM43.6,9.575,32.44,20.733V9.575ZM15.8,32.6a56.2,56.2,0,0,1-3.359,9.279c-.733,1.742-1.5,3.562-2.231,5.447V32.6Zm-5.59,27.461c.994-5.957,3.411-11.709,5.548-16.787,1.709-4.063,3.222-7.665,3.693-10.674h3.755A17.078,17.078,0,0,1,19.82,42.84,18.64,18.64,0,0,0,16.87,48.9a19.855,19.855,0,0,0-.467,6.563c.16,3.236.357,7.245-2.282,16.169H10.213V60.065ZM34.968,71.626c.617-1.006,1.476-2.233,2.186-3.246,2.155-3.078,4.837-6.908,5.924-10.571.809-2.726,2.266-2.746,5.919-2.12l.239.041v15.9ZM52.834,39.541,71.463,20.912V33.039L55.9,48.6h-3.07V39.541ZM60.992,48.6,71.463,38.127V48.6Z" transform="translate(-6.615 -5.977)" fill="#212121"/>
</svg>
